<?xml version="1.0" encoding="UTF-8" standalone="no"?>
<!-- Created with Inkscape (http://www.inkscape.org/) -->

<svg
   width="32"
   height="32"
   viewBox="0 0 32 32"
   version="1.1"
   id="svg1"
   sodipodi:docname="volcano_board_elb_icon.svg"
   inkscape:version="1.3.2 (091e20e, 2023-11-25, custom)"
   xmlns:inkscape="http://www.inkscape.org/namespaces/inkscape"
   xmlns:sodipodi="http://sodipodi.sourceforge.net/DTD/sodipodi-0.dtd"
   xmlns:xlink="http://www.w3.org/1999/xlink"
   xmlns="http://www.w3.org/2000/svg"
   xmlns:svg="http://www.w3.org/2000/svg">
  <sodipodi:namedview
     id="namedview1"
     pagecolor="#505050"
     bordercolor="#ffffff"
     borderopacity="1"
     inkscape:showpageshadow="0"
     inkscape:pageopacity="0"
     inkscape:pagecheckerboard="1"
     inkscape:deskcolor="#d1d1d1"
     showgrid="true"
     inkscape:current-layer="svg1">
    <inkscape:grid
       id="grid1"
       units="px"
       originx="0"
       originy="0"
       spacingx="1"
       spacingy="1"
       empcolor="#ffff00"
       empopacity="0.30196078"
       color="#ffff00"
       opacity="0.14901961"
       empspacing="4"
       dotted="false"
       gridanglex="30"
       gridanglez="30"
       visible="true" />
  </sodipodi:namedview>
  <defs
     id="defs1">
    <linearGradient
       id="linearGradient4">
      <stop
         style="stop-color:#2c72c7;stop-opacity:1;"
         offset="0"
         id="stop4" />
      <stop
         style="stop-color:#00438a;stop-opacity:1;"
         offset="1"
         id="stop5" />
    </linearGradient>
    <linearGradient
       xlink:href="#linearGradient4"
       id="linearGradient5"
       x1="0"
       y1="0"
       x2="32"
       y2="32"
       gradientUnits="userSpaceOnUse" />
  </defs>
  <g
     id="g1">
    <rect
       style="fill:url(#linearGradient5)"
       id="rect4"
       width="32"
       height="32"
       x="0"
       y="0" />
    <path
       style="opacity:0.1;fill:#000000;stroke-width:1.66505"
       d="M 4.0000002,6.8422759 V 25.157724 H 28 L 18.842276,15.999999 28,6.8422759 H 23.291059 L 16.487806,13.645529 10.660163,7.8178859 V 12.52683 l 3.473169,3.473169 -4.1626012,4.162602 h 4.7089432 l 1.808132,-1.808131 3.47317,3.473172 H 7.3300817 V 6.8422759 Z"
       id="path1-6" />
  </g>
  <rect
     style="fill:none;stroke:#ffffff;stroke-linecap:square;stroke-miterlimit:8;stroke-dashoffset:0.8;paint-order:markers stroke fill"
     id="rect6"
     width="8"
     height="8"
     x="12"
     y="12" />
  <path
     id="path3"
     style="color:#000000;fill:#ffffff;stroke-linecap:square;stroke-miterlimit:8;stroke-dashoffset:0.8;-inkscape-stroke:none;paint-order:markers stroke fill"
     d="M 6.5761719 3.4335938 L 3.4335938 25.423828 L 25.423828 28.566406 L 28.566406 6.5761719 L 6.5761719 3.4335938 z M 7.4238281 4.5644531 L 13.435547 5.4238281 L 12.708984 10.5 L 13.71875 10.5 L 14.423828 5.5644531 L 20.435547 6.4238281 L 19.853516 10.5 L 20.861328 10.5 L 21.423828 6.5644531 L 27.435547 7.4238281 L 26.576172 13.435547 L 21.5 12.708984 L 21.5 13.71875 L 26.435547 14.423828 L 25.576172 20.435547 L 21.5 19.853516 L 21.5 20.861328 L 25.435547 21.423828 L 24.576172 27.435547 L 18.564453 26.576172 L 19.291016 21.5 L 18.28125 21.5 L 17.576172 26.435547 L 11.564453 25.576172 L 12.146484 21.5 L 11.138672 21.5 L 10.576172 25.435547 L 4.5644531 24.576172 L 5.4238281 18.564453 L 10.5 19.291016 L 10.5 18.28125 L 5.5644531 17.576172 L 6.4238281 11.564453 L 10.5 12.146484 L 10.5 11.138672 L 6.5644531 10.576172 L 7.4238281 4.5644531 z " />
  <path
     id="path14"
     style="color:#000000;fill:#ffffff;stroke-linecap:square;stroke-miterlimit:8;stroke-dashoffset:0.8;-inkscape-stroke:none;paint-order:markers stroke fill"
     d="M 13.292969 12 L 12 13.292969 L 12 14.707031 L 12.353516 14.353516 L 14.353516 12.353516 L 14.707031 12 L 13.292969 12 z M 16.292969 12 L 12 16.292969 L 12 17.707031 L 12.353516 17.353516 L 17.353516 12.353516 L 17.707031 12 L 16.292969 12 z M 19.292969 12 L 12 19.292969 L 12 20 L 12.707031 20 L 20 12.707031 L 20 12 L 19.292969 12 z M 20 14.292969 L 19.646484 14.646484 L 14.646484 19.646484 L 14.292969 20 L 15.707031 20 L 20 15.707031 L 20 14.292969 z M 20 17.292969 L 19.646484 17.646484 L 17.646484 19.646484 L 17.292969 20 L 18.707031 20 L 20 18.707031 L 20 17.292969 z " />
</svg>
