<?xml version="1.0" encoding="UTF-8" standalone="no"?>
<!-- Created with Inkscape (http://www.inkscape.org/) -->

<svg
   width="32"
   height="32"
   viewBox="0 0 32 32"
   version="1.1"
   id="svg1"
   xmlns:xlink="http://www.w3.org/1999/xlink"
   xmlns="http://www.w3.org/2000/svg"
   xmlns:svg="http://www.w3.org/2000/svg">
  <defs
     id="defs1">
    <linearGradient
       id="linearGradient4">
      <stop
         style="stop-color:#2c72c7;stop-opacity:1;"
         offset="0"
         id="stop4" />
      <stop
         style="stop-color:#00438a;stop-opacity:1;"
         offset="1"
         id="stop5" />
    </linearGradient>
    <linearGradient
       xlink:href="#linearGradient4"
       id="linearGradient5"
       x1="0"
       y1="0"
       x2="32"
       y2="32"
       gradientUnits="userSpaceOnUse" />
  </defs>
  <g
     id="g1">
    <rect
       style="fill:url(#linearGradient5)"
       id="rect4"
       width="32"
       height="32"
       x="0"
       y="0" />
    <path
       style="opacity:0.1;fill:#000000;stroke-width:1.66505"
       d="M 4.0000002,6.8422759 V 25.157724 H 28 L 18.842276,15.999999 28,6.8422759 H 23.291059 L 16.487806,13.645529 10.660163,7.8178859 V 12.52683 l 3.473169,3.473169 -4.1626012,4.162602 h 4.7089432 l 1.808132,-1.808131 3.47317,3.473172 H 7.3300817 V 6.8422759 Z"
       id="path1-6" />
  </g>
  <path
     id="path3"
     style="color:#000000;fill:#ffffff;stroke-linecap:square;stroke-miterlimit:8;stroke-dashoffset:0.8;-inkscape-stroke:none;paint-order:markers stroke fill"
     d="M 6.5761719,3.4335938 3.4335938,25.423828 25.423828,28.566406 28.566406,6.5761719 Z m 0.8476562,1.1308593 6.0117189,0.859375 -0.859375,6.0117189 -6.0117189,-0.859375 z m 6.9999999,1 6.011719,0.859375 -0.859375,6.0117189 -6.011719,-0.859375 z m 7,1 6.011719,0.859375 -0.859375,6.0117189 -6.011719,-0.859375 z M 6.4238281,11.564453 12.435547,12.423828 11.576172,18.435547 5.5644531,17.576172 Z m 6.9999999,1 6.011719,0.859375 -0.859375,6.011719 -6.011719,-0.859375 z m 7,1 6.011719,0.859375 -0.859375,6.011719 -6.011719,-0.859375 z m -14.9999999,5 6.0117189,0.859375 -0.859375,6.011719 -6.0117189,-0.859375 z m 6.9999999,1 6.011719,0.859375 -0.859375,6.011719 -6.011719,-0.859375 z m 7,1 6.011719,0.859375 -0.859375,6.011719 -6.011719,-0.859375 z" />
</svg>
